# Blender v2.83.4 OBJ File: 'xd.blend'
# www.blender.org
mtllib flowerpot.mtl
o Plane001_Mesh.001
v 0.040500 0.828285 -0.565196
v 0.040500 0.828285 -0.565196
v 0.040500 0.828285 -0.565196
v 0.040500 0.828285 -0.565196
vt 0.000000 1.000000
vt 0.000000 0.000000
vt 1.000000 1.000000
vt 1.000000 0.000000
vn 0.0000 0.0000 1.0000
usemtl Material_#2
s 1
f 3/1/1 1/2/1 4/3/1
f 2/4/1 4/3/1 1/2/1
o Plane001.001_Mesh.031
v 0.040500 0.828285 -0.565196
v 0.040500 0.828285 -0.565196
v 0.040500 0.828285 -0.565196
v 0.040500 0.828285 -0.565196
vt 0.000000 1.000000
vt 0.000000 0.000000
vt 1.000000 1.000000
vt 1.000000 0.000000
vn 0.0000 0.0000 1.0000
usemtl Material_#2.001
s 1
f 7/5/2 5/6/2 8/7/2
f 6/8/2 8/7/2 5/6/2
o Plane001.002_Mesh.046
v 0.040500 0.828285 -0.565196
v 0.040500 0.828285 -0.565196
v 0.040500 0.828285 -0.565196
v 0.040500 0.828285 -0.565196
vt 0.000000 1.000000
vt 0.000000 0.000000
vt 1.000000 1.000000
vt 1.000000 0.000000
vn 0.0000 0.0000 1.0000
usemtl Material_#2.002
s 1
f 11/9/3 9/10/3 12/11/3
f 10/12/3 12/11/3 9/10/3
o flowerpot1_Mesh.002
v 0.228811 -0.215435 -0.486022
v -0.286737 -0.215435 -0.486022
v -0.544511 -0.215435 -0.039544
v 0.290203 0.193651 -0.592356
v -0.348129 0.193651 -0.592356
v -0.667295 0.193651 -0.039544
v 0.507041 0.115263 -0.039544
v 0.239039 0.115263 -0.503737
v 0.251186 0.193168 -0.524777
v -0.296965 0.115263 -0.503737
v -0.309113 0.193168 -0.524777
v -0.564967 0.115263 -0.039544
v -0.589262 0.193168 -0.039544
v -0.296965 0.115263 0.424649
v 0.239039 0.115263 0.424649
v -0.286737 -0.215435 0.406934
v 0.228811 -0.215435 0.406934
v 0.486585 -0.215435 -0.039544
v -0.309113 0.193409 0.445689
v 0.531336 0.193168 -0.039544
v -0.348129 0.193651 0.513268
v 0.290203 0.193651 0.513268
v 0.609370 0.193651 -0.039544
v 0.251186 0.193168 0.445689
vt 0.361174 0.423815
vt 0.092552 0.344801
vt 0.173189 0.170329
vt 0.389998 0.234720
vt 0.620310 0.234490
vt 0.650055 0.423942
vt 0.845416 0.169115
vt 0.925829 0.342245
vt 0.263734 0.679214
vt 0.753562 0.679214
vt 0.631105 0.891316
vt 0.386191 0.891316
vt 0.829060 0.686037
vt 0.668534 0.958709
vt 0.649143 0.925861
vt 0.789429 0.686665
vt 0.349433 0.958449
vt 0.368570 0.925861
vt 0.189558 0.679549
vt 0.228284 0.681134
vt 0.787561 0.679214
vt 0.648104 0.920760
vt 0.369192 0.920760
vt 0.229736 0.679214
vt 0.369192 0.437669
vt 0.386191 0.467113
vt 0.648105 0.437669
vt 0.631105 0.467113
vt 0.275584 0.036021
vt 0.734639 0.036033
vt 0.092552 0.344801
vt 0.173189 0.170329
vt 0.389998 0.234720
vt 0.361174 0.423815
vt 0.620310 0.234490
vt 0.650055 0.423942
vt 0.845416 0.169115
vt 0.925829 0.342245
vt 0.668534 0.958709
vt 0.649143 0.925861
vt 0.789429 0.686665
vt 0.829060 0.686037
vt 0.349433 0.958449
vt 0.368570 0.925861
vt 0.189558 0.679549
vt 0.228284 0.681134
vt 0.275584 0.036021
vt 0.734639 0.036033
vn 0.8382 -0.2516 -0.4839
vn -0.0000 -0.2516 -0.9678
vn -0.8382 -0.2516 -0.4839
vn 0.0000 1.0000 0.0000
vn -0.0062 1.0000 -0.0000
vn -0.0031 1.0000 0.0054
vn 0.0031 1.0000 0.0054
vn 0.0054 1.0000 0.0004
vn -0.8361 0.2607 0.4827
vn 0.0000 0.2607 0.9654
vn 0.8361 0.2607 0.4827
vn 0.8361 0.2604 -0.4828
vn 0.0001 0.2604 -0.9655
vn -0.8361 0.2607 -0.4827
vn 0.0000 -1.0000 0.0000
vn -0.8382 -0.2516 0.4839
vn -0.0000 -0.2516 0.9678
vn 0.8382 -0.2516 0.4839
vn 0.0024 1.0000 -0.0041
vn -0.0030 1.0000 -0.0045
usemtl flowerpot1
s 1
f 16/13/4 35/14/4 30/15/4 13/16/4
f 16/13/5 13/16/5 14/17/5 17/18/5
f 17/18/6 14/17/6 15/19/6 18/20/6
f 24/21/7 19/22/7 20/23/7 22/24/7
f 35/25/8 16/26/9 21/27/9 32/28/8
f 17/29/10 23/30/10 21/27/9 16/26/9
f 18/31/11 25/32/11 23/30/10 17/29/10
f 32/33/12 21/34/12 20/23/12 19/22/12
f 21/34/13 23/35/13 22/24/13 20/23/13
f 23/35/14 25/36/14 24/21/14 22/24/14
f 25/36/15 31/37/15 26/38/15 24/21/15
f 31/37/16 36/39/16 27/40/16 26/38/16
f 36/39/17 32/33/17 19/22/17 27/40/17
f 14/17/18 13/16/18 30/41/18 15/42/18
f 18/43/19 15/44/19 28/45/19 33/46/19
f 33/46/20 28/45/20 29/47/20 34/48/20
f 34/48/21 29/47/21 30/49/21 35/50/21
f 33/51/22 31/52/22 25/53/11 18/54/11
f 34/55/23 36/56/23 31/52/22 33/51/22
f 34/55/23 35/57/8 32/58/8 36/56/23
f 29/47/18 28/45/18 15/59/18 30/60/18
f 24/21/7 26/38/7 27/40/7 19/22/7
